# Blender v2.82 (sub 7) OBJ File: ''
# www.blender.org
mtllib asteroidluz.mtl
o Cube.001
v 0.212457 0.491859 -0.212457
v 0.000000 0.542753 0.000000
v 0.239698 0.568797 0.000000
v -0.182509 0.413493 -0.182509
v 0.000000 0.504000 -0.215011
v 0.199118 0.456956 0.199119
v -0.193319 0.447063 0.000000
v 0.000000 0.459864 0.198197
v 0.283130 0.283130 -0.283130
v 0.392397 0.392397 -0.202279
v 0.174468 0.333290 -0.333290
v 0.000000 0.332976 -0.332976
v -0.291608 0.291608 -0.291608
v -0.163864 0.310753 -0.310753
v -0.346774 0.346774 -0.180812
v -0.414682 0.414681 0.212765
v -0.205248 0.472995 0.205248
v -0.320091 0.320091 0.320091
v -0.164300 0.311682 0.311682
v 0.000000 0.339502 0.339502
v 0.185020 0.355716 0.355717
v 0.293089 0.293089 0.293089
v 0.365114 0.365114 0.189442
v 0.416257 0.416257 0.000000
v 0.193929 -0.193929 0.443375
v 0.000000 -0.000000 0.465199
v 0.000000 -0.183292 0.420741
v 0.203480 0.203480 0.468370
v 0.238470 -0.000000 0.565576
v -0.178476 -0.178476 0.402939
v 0.000000 0.192345 0.444504
v -0.196832 -0.000000 0.456282
v 0.312197 -0.312197 0.312197
v 0.180621 -0.346368 0.346368
v 0.422433 -0.000000 0.422433
v 0.381455 -0.197130 0.381455
v 0.330718 0.173258 0.330718
v -0.197464 0.197464 0.452627
v -0.380817 0.196830 0.380817
v -0.404608 -0.000000 0.404608
v -0.393304 -0.202706 0.393304
v -0.274447 -0.274447 0.274447
v -0.156225 -0.294520 0.294519
v 0.000000 -0.320324 0.320324
v -0.482185 -0.208760 0.208760
v -0.566866 0.000000 0.000000
v -0.465084 -0.200186 -0.000000
v -0.577381 -0.000000 0.242967
v -0.590876 0.248109 0.000000
v -0.444104 0.000000 -0.192192
v -0.397112 -0.176249 -0.176249
v -0.467865 0.203288 -0.203288
v -0.306657 -0.306657 0.161936
v -0.595818 0.252185 0.252185
v -0.444314 0.444314 0.000000
v -0.362254 0.188096 -0.362254
v -0.339335 0.000000 -0.339335
v -0.315831 -0.166253 -0.315831
v -0.286034 -0.286034 -0.286034
v -0.322786 -0.322786 -0.169525
v -0.343540 -0.343540 -0.000000
v 0.000000 -0.441072 -0.191037
v -0.185639 -0.426900 -0.000000
v -0.191518 -0.437066 -0.191518
v 0.186952 -0.425120 -0.186952
v 0.000000 -0.472266 -0.000000
v -0.154826 -0.341055 0.154826
v 0.188116 -0.428166 0.188116
v 0.000000 -0.397211 0.174327
v -0.168021 -0.319588 -0.319588
v 0.163641 -0.310281 -0.310281
v 0.000000 -0.341495 -0.341495
v 0.285574 -0.285574 -0.285574
v 0.361794 -0.361794 -0.187880
v 0.201144 -0.467602 -0.000000
v 0.421765 -0.421765 -0.000000
v 0.402001 -0.178117 -0.178117
v 0.504040 0.000000 0.000000
v 0.532159 -0.225739 -0.000000
v 0.431499 0.189390 -0.189390
v 0.429568 0.000000 -0.186655
v 0.536906 -0.000000 0.227548
v 0.558135 -0.237784 0.237784
v 0.442308 0.193520 0.193520
v 0.306603 -0.161911 -0.306603
v 0.284081 0.151314 -0.284081
v 0.318529 0.000000 -0.318529
v 0.514990 0.219199 0.000000
v 0.410796 -0.410796 0.210936
v -0.174489 -0.174489 -0.392508
v 0.000000 0.000000 -0.430818
v 0.000000 -0.197657 -0.458448
v -0.193071 0.000000 -0.446410
v 0.000000 0.154148 -0.344244
v 0.197685 0.000000 -0.458521
v 0.205854 -0.205853 -0.474580
v 0.182701 0.182701 -0.413994
v -0.192228 0.192228 -0.438926
vt 0.696045 0.554579
vt 0.751736 0.625000
vt 0.692491 0.625000
vt 0.812853 0.562174
vt 0.752821 0.559896
vt 0.696045 0.695421
vt 0.812717 0.625000
vt 0.752821 0.690104
vt 0.666667 0.458333
vt 0.637912 0.550456
vt 0.705078 0.482422
vt 0.755208 0.494792
vt 0.875000 0.500000
vt 0.813151 0.499349
vt 0.875000 0.562500
vt 0.875000 0.687500
vt 0.812853 0.687826
vt 0.875000 0.750000
vt 0.813151 0.750651
vt 0.755208 0.755208
vt 0.705078 0.767578
vt 0.666667 0.791667
vt 0.637912 0.699544
vt 0.631945 0.625000
vt 0.429579 0.821045
vt 0.500000 0.876736
vt 0.434896 0.877821
vt 0.570421 0.821045
vt 0.500000 0.817491
vt 0.437174 0.937853
vt 0.565104 0.877821
vt 0.500000 0.937717
vt 0.333333 0.791667
vt 0.357422 0.830078
vt 0.500000 0.756944
vt 0.425456 0.762912
vt 0.574544 0.762912
vt 0.642578 0.830078
vt 0.625651 0.938151
vt 0.562826 0.937853
vt 0.625000 1.000000
vt 0.562500 1.000000
vt 0.500000 1.000000
vt 0.437500 1.000000
vt 0.375000 1.000000
vt 0.374349 0.938151
vt 0.369792 0.880208
vt 0.437500 0.062500
vt 0.500000 0.125000
vt 0.437500 0.125000
vt 0.500000 0.062500
vt 0.562500 0.125000
vt 0.500000 0.187500
vt 0.437500 0.187500
vt 0.562500 0.187500
vt 0.375000 0.000000
vt 0.375000 0.062500
vt 0.500000 0.000000
vt 0.437500 0.000000
vt 0.562500 0.000000
vt 0.625000 0.000000
vt 0.562500 0.062500
vt 0.625000 0.062500
vt 0.625000 0.125000
vt 0.625000 0.250000
vt 0.562500 0.250000
vt 0.500000 0.250000
vt 0.437500 0.250000
vt 0.375000 0.250000
vt 0.375000 0.187500
vt 0.375000 0.125000
vt 0.247179 0.559896
vt 0.187283 0.625000
vt 0.187147 0.562174
vt 0.303955 0.554579
vt 0.248264 0.625000
vt 0.187147 0.687826
vt 0.303955 0.695421
vt 0.247179 0.690104
vt 0.125000 0.500000
vt 0.125000 0.562500
vt 0.186849 0.499349
vt 0.294922 0.482422
vt 0.244792 0.494792
vt 0.333333 0.458333
vt 0.362088 0.550456
vt 0.307509 0.625000
vt 0.368056 0.625000
vt 0.294922 0.767578
vt 0.244792 0.755208
vt 0.186849 0.750651
vt 0.125000 0.750000
vt 0.125000 0.687500
vt 0.125000 0.625000
vt 0.429742 0.554742
vt 0.500000 0.625000
vt 0.432726 0.625000
vt 0.570258 0.554742
vt 0.500000 0.557726
vt 0.500000 0.692274
vt 0.429742 0.695258
vt 0.570258 0.695258
vt 0.425456 0.487088
vt 0.574544 0.487088
vt 0.500000 0.493056
vt 0.567274 0.625000
vt 0.362088 0.699544
vt 0.437174 0.312147
vt 0.500000 0.373264
vt 0.434896 0.372179
vt 0.500000 0.312283
vt 0.565104 0.372179
vt 0.500000 0.432509
vt 0.429579 0.428955
vt 0.570421 0.428955
vt 0.374349 0.311849
vt 0.562826 0.312147
vt 0.625651 0.311849
vt 0.642578 0.419922
vt 0.357422 0.419922
vt 0.369792 0.369792
vt 0.875000 0.625000
vt 0.630208 0.880208
vt 0.625000 0.187500
vt 0.630208 0.369792
vn -0.1021 0.9395 -0.3271
vn -0.4611 0.8733 -0.1574
vn -0.0952 0.8761 0.4727
vn -0.4154 0.8392 0.3510
vn 0.2646 0.3885 -0.8826
vn 0.0438 0.5989 -0.7997
vn -0.3936 0.5220 -0.7567
vn -0.2067 0.7446 -0.6346
vn -0.2066 0.7487 -0.6299
vn -0.2067 0.7448 -0.6345
vn -0.3712 0.9091 -0.1892
vn -0.2703 0.9531 -0.1361
vn 0.0736 0.5621 0.8238
vn 0.0748 0.5623 0.8235
vn 0.0651 0.5610 0.8253
vn -0.2322 0.7405 0.6307
vn 0.0097 0.8393 0.5435
vn 0.3803 0.6145 0.6912
vn 0.4696 0.8123 0.3460
vn 0.4845 0.8603 -0.1586
vn -0.1254 -0.2339 0.9642
vn -0.3634 0.3500 0.8634
vn -0.1027 -0.2345 0.9667
vn -0.0450 0.1069 0.9933
vn 0.3392 -0.5260 0.7800
vn 0.2994 -0.2535 0.9198
vn 0.5531 0.4347 0.7108
vn 0.7143 0.4038 0.5716
vn -0.1213 0.5768 0.8078
vn -0.1238 0.5784 0.8063
vn -0.1261 0.5802 0.8047
vn 0.0461 0.7708 0.6355
vn -0.3089 0.5384 0.7840
vn -0.2388 0.1449 0.9602
vn -0.0382 -0.0578 0.9976
vn -0.2335 -0.6874 0.6878
vn -0.2249 -0.5759 0.7859
vn -0.1976 -0.5794 0.7907
vn -0.8877 -0.4513 -0.0913
vn -0.9944 -0.0962 -0.0430
vn -0.8854 -0.2703 -0.3782
vn -0.8359 -0.1269 -0.5340
vn -0.8355 -0.1267 -0.5348
vn -0.8324 -0.1266 -0.5396
vn -0.3818 -0.8538 0.3538
vn -0.8975 -0.0743 0.4347
vn -0.6734 0.1684 0.7198
vn -0.3254 0.5487 0.7701
vn -0.3247 0.5420 0.7752
vn -0.3244 0.5418 0.7754
vn -0.6706 0.7414 -0.0251
vn -0.6819 0.5094 -0.5249
vn -0.5693 0.6918 -0.4443
vn -0.8031 -0.1675 -0.5718
vn -0.8249 -0.2651 -0.4993
vn -0.8130 -0.4304 -0.3922
vn -0.8769 -0.4523 -0.1627
vn -0.7262 -0.6157 0.3057
vn -0.0210 -0.9983 0.0536
vn 0.0874 -0.9832 -0.1605
vn -0.2048 -0.8382 0.5055
vn -0.1773 -0.9039 0.3892
vn -0.6375 -0.6539 -0.4074
vn -0.0137 -0.7356 -0.6773
vn 0.2556 -0.8062 -0.5336
vn 0.2755 -0.6770 -0.6825
vn 0.3301 -0.9148 -0.2329
vn 0.1987 -0.9564 0.2142
vn 0.3317 -0.8316 0.4455
vn -0.1769 -0.8708 0.4586
vn -0.3584 -0.8868 0.2918
vn -0.1949 -0.9268 0.3211
vn -0.4462 -0.8452 0.2941
vn -0.4606 -0.8725 -0.1632
vn 0.8160 0.1016 -0.5691
vn 0.9287 -0.0148 -0.3705
vn 0.9910 0.0840 -0.1040
vn 0.8996 0.4169 -0.1299
vn 0.7327 -0.1248 -0.6690
vn 0.7846 -0.1503 -0.6015
vn 0.7246 0.3056 -0.6178
vn 0.7284 0.3054 -0.6133
vn 0.7245 0.3056 -0.6178
vn 0.5386 0.0100 -0.8425
vn 0.8965 0.1461 -0.4182
vn 0.8444 0.3886 0.3687
vn 0.6790 0.4054 0.6121
vn 0.6982 0.5867 0.4101
vn 0.6407 0.0900 0.7625
vn 0.3805 -0.4495 0.8082
vn 0.8692 -0.4895 0.0707
vn 0.7991 -0.4500 -0.3987
vn -0.3353 0.1304 -0.9330
vn 0.0702 0.4885 -0.8697
vn -0.0750 0.0746 -0.9944
vn -0.1353 0.2241 -0.9651
vn -0.3582 -0.4319 -0.8277
vn -0.4677 -0.3060 -0.8292
vn -0.5904 0.0340 -0.8064
vn -0.3176 0.6728 -0.6682
vn 0.4448 0.6064 -0.6592
vn -0.3802 0.4207 -0.8237
vn 0.7895 0.0101 -0.6137
vn 0.7207 0.3057 -0.6222
vn 0.8464 0.0747 -0.5272
vn 0.2656 -0.8431 -0.4676
vn 0.2592 -0.6093 -0.7494
vn -0.1728 -0.4484 -0.8770
vn 0.0583 0.9825 -0.1771
vn -0.4357 0.8803 -0.1877
vn 0.0117 0.9225 0.3858
vn 0.0592 0.9908 -0.1217
vn 0.5337 0.4249 -0.7312
vn 0.5343 0.4219 -0.7325
vn 0.5341 0.4277 -0.7292
vn -0.0025 0.5678 -0.8232
vn -0.1877 0.7531 -0.6306
vn -0.3203 0.7747 -0.5452
vn -0.0096 0.8779 -0.4788
vn -0.0108 0.9902 0.1394
vn -0.1595 0.6667 0.7281
vn 0.0642 0.5609 0.8254
vn -0.1226 0.7555 0.6435
vn 0.6296 0.6254 0.4610
vn 0.5708 0.6607 0.4874
vn 0.6155 0.7125 -0.3369
vn -0.3481 -0.4412 0.8271
vn -0.1216 0.1062 0.9869
vn -0.0433 -0.2902 0.9560
vn 0.0416 0.0186 0.9990
vn 0.2409 -0.6028 0.7607
vn 0.5176 -0.5381 0.6652
vn 0.6514 0.5944 0.4716
vn 0.6330 0.5086 0.5836
vn -0.1213 0.5765 0.8080
vn -0.2299 0.5653 0.7922
vn 0.0758 0.7659 0.6385
vn -0.3647 0.0161 0.9310
vn -0.2302 -0.3003 0.9256
vn 0.0675 -0.8229 0.5642
vn -0.0903 -0.6891 0.7190
vn -0.1270 -0.5246 0.8418
vn -0.9116 -0.4092 -0.0395
vn -0.9972 -0.0722 -0.0184
vn -0.7746 -0.3939 -0.4948
vn -0.8606 -0.0833 -0.5024
vn -0.3523 -0.9144 0.1996
vn -0.6274 -0.3960 0.6706
vn -0.5253 -0.0694 0.8481
vn -0.3249 0.5490 0.7701
vn -0.7864 0.5874 0.1913
vn -0.5582 0.5661 -0.6065
vn -0.5782 0.5781 -0.5757
vn -0.8318 -0.1267 -0.5405
vn -0.7992 -0.1934 -0.5691
vn -0.8074 -0.3236 -0.4933
vn -0.7125 -0.6041 -0.3568
vn -0.5011 -0.8620 -0.0765
vn -0.2345 -0.9594 -0.1567
vn 0.0226 -0.9745 -0.2232
vn -0.3576 -0.8577 0.3693
vn 0.0227 -0.9782 0.2066
vn -0.3730 -0.6486 -0.6634
vn -0.1778 -0.8206 -0.5431
vn 0.0767 -0.7224 -0.6872
vn 0.2379 -0.6671 -0.7060
vn 0.1903 -0.9160 -0.3531
vn 0.0720 -0.9959 0.0555
vn -0.0143 -0.7233 0.6904
vn -0.1902 -0.8758 0.4437
vn -0.2178 -0.8636 0.4548
vn -0.2098 -0.9283 0.3071
vn -0.1684 -0.8475 0.5034
vn -0.6497 -0.7578 0.0602
vn 0.9169 -0.1594 -0.3658
vn 0.9167 -0.0458 -0.3969
vn 0.9823 0.1224 -0.1419
vn 0.9372 -0.0468 0.3458
vn 0.7667 -0.2322 -0.5985
vn 0.7608 -0.1020 -0.6409
vn 0.7569 -0.1033 -0.6453
vn 0.7609 -0.1032 -0.6407
vn 0.5436 -0.0177 -0.8392
vn 0.5579 0.0549 -0.8281
vn 0.8831 0.4424 -0.1564
vn 0.8406 0.4212 0.3406
vn 0.6631 0.3144 0.6793
vn 0.6671 0.4327 0.6065
vn 0.8293 -0.2737 0.4871
vn 0.3933 -0.6362 0.6637
vn 0.7650 -0.6335 -0.1157
vn 0.7816 -0.1388 -0.6082
vn 0.0771 -0.2868 -0.9549
vn 0.4468 0.0328 -0.8940
vn -0.1375 0.1371 -0.9810
vn -0.3789 0.4532 -0.8069
vn -0.4660 -0.3210 -0.8245
vn -0.5795 -0.1938 -0.7916
vn -0.4026 -0.1589 -0.9015
vn -0.2068 0.7407 -0.6392
vn -0.1424 0.0622 -0.9878
vn -0.0019 0.0629 -0.9980
vn 0.5333 0.4221 -0.7331
vn 0.7951 0.2044 -0.5711
vn 0.7529 -0.1033 -0.6499
vn 0.8605 -0.2241 -0.4575
vn -0.0762 -0.8325 -0.5487
vn -0.3527 -0.5903 -0.7260
usemtl Material.001
s 1
f 1/1/1 2/2/1 3/3/1
f 4/4/2 2/2/2 5/5/2
f 2/2/3 6/6/3 3/3/3
f 7/7/4 8/8/4 2/2/4
f 9/9/5 1/1/5 10/10/5
f 11/11/6 5/5/6 1/1/6
f 12/12/7 4/4/7 5/5/7
f 13/13/8 4/4/9 14/14/10
f 15/15/11 7/7/11 4/4/11
f 7/7/12 16/16/12 17/17/12
f 17/17/13 18/18/14 19/19/15
f 8/8/16 19/19/16 20/20/16
f 8/8/17 21/21/17 6/6/17
f 6/6/18 22/22/18 23/23/18
f 24/24/19 6/6/19 23/23/19
f 1/1/20 24/24/20 10/10/20
f 25/25/21 26/26/21 27/27/21
f 28/28/22 26/26/22 29/29/22
f 26/26/23 30/30/23 27/27/23
f 31/31/24 32/32/24 26/26/24
f 33/33/25 25/25/25 34/34/25
f 35/35/26 25/25/26 36/36/26
f 35/35/27 28/28/27 29/29/27
f 22/22/28 28/28/28 37/37/28
f 21/38/29 31/31/30 28/28/31
f 31/31/32 19/39/32 38/40/32
f 38/40/33 18/41/33 39/42/33
f 32/32/34 39/42/34 40/43/34
f 30/30/35 40/43/35 41/44/35
f 30/30/36 42/45/36 43/46/36
f 27/27/37 43/46/37 44/47/37
f 34/34/38 27/27/38 44/47/38
f 45/48/39 46/49/39 47/50/39
f 48/51/40 49/52/40 46/49/40
f 47/50/41 50/53/41 51/54/41
f 46/49/42 52/55/43 50/53/44
f 42/56/45 45/48/45 53/57/45
f 40/58/46 45/48/46 41/59/46
f 39/60/47 48/51/47 40/58/47
f 18/61/48 54/62/49 39/60/50
f 16/63/51 49/52/51 54/62/51
f 55/64/52 52/55/52 49/52/52
f 52/55/53 13/65/53 56/66/53
f 50/53/54 56/66/54 57/67/54
f 50/53/55 58/68/55 51/54/55
f 51/54/56 59/69/56 60/70/56
f 61/71/57 51/54/57 60/70/57
f 53/57/58 47/50/58 61/71/58
f 62/72/59 63/73/59 64/74/59
f 65/75/60 66/76/60 62/72/60
f 66/76/61 67/77/61 63/73/61
f 66/76/62 68/78/62 69/79/62
f 59/80/63 64/74/63 60/81/63
f 70/82/64 62/72/64 64/74/64
f 71/83/65 62/72/65 72/84/65
f 73/85/66 65/75/66 71/83/66
f 74/86/67 75/87/67 65/75/67
f 76/88/68 68/78/68 75/87/68
f 68/78/69 33/33/69 34/89/69
f 68/78/70 44/90/70 69/79/70
f 69/79/71 43/91/71 67/77/71
f 67/77/72 42/92/72 53/93/72
f 63/73/73 53/93/73 61/94/73
f 60/81/74 63/73/74 61/94/74
f 77/95/75 78/96/75 79/97/75
f 80/98/76 78/96/76 81/99/76
f 79/97/77 82/100/77 83/101/77
f 78/96/78 84/102/78 82/100/78
f 73/85/79 77/95/79 74/86/79
f 85/103/80 81/99/80 77/95/80
f 86/104/81 81/99/82 87/105/83
f 9/9/84 80/98/84 86/104/84
f 10/10/85 88/106/85 80/98/85
f 88/106/86 23/23/86 84/102/86
f 84/102/87 22/22/87 37/37/87
f 82/100/88 37/37/88 35/35/88
f 82/100/89 36/36/89 83/101/89
f 83/101/90 33/33/90 89/107/90
f 79/97/91 89/107/91 76/88/91
f 74/86/92 79/97/92 76/88/92
f 90/108/93 91/109/93 92/110/93
f 93/111/94 94/112/94 91/109/94
f 92/110/95 95/113/95 96/114/95
f 91/109/96 97/115/96 95/113/96
f 59/69/97 90/108/97 70/116/97
f 58/68/98 93/111/98 90/108/98
f 57/67/99 98/117/99 93/111/99
f 13/65/100 98/117/100 56/66/100
f 14/118/101 94/112/101 98/117/101
f 94/112/102 11/119/102 97/115/102
f 97/115/103 9/9/103 86/104/103
f 95/113/104 86/104/81 87/105/83
f 95/113/105 85/103/105 96/114/105
f 96/114/106 73/85/106 71/120/106
f 92/110/107 71/120/107 72/121/107
f 90/108/108 72/121/108 70/116/108
f 1/1/109 5/5/109 2/2/109
f 4/4/110 7/7/110 2/2/110
f 2/2/111 8/8/111 6/6/111
f 7/7/112 17/17/112 8/8/112
f 9/9/113 11/11/114 1/1/115
f 11/11/116 12/12/116 5/5/116
f 12/12/117 14/14/117 4/4/117
f 13/13/118 15/15/118 4/4/118
f 15/15/119 55/122/119 7/7/119
f 7/7/120 55/122/120 16/16/120
f 17/17/121 16/16/121 18/18/121
f 8/8/122 17/17/13 19/19/15
f 8/8/123 20/20/123 21/21/123
f 6/6/124 21/21/124 22/22/124
f 24/24/125 3/3/125 6/6/125
f 1/1/126 3/3/126 24/24/126
f 25/25/127 29/29/127 26/26/127
f 28/28/128 31/31/128 26/26/128
f 26/26/129 32/32/129 30/30/129
f 31/31/130 38/40/130 32/32/130
f 33/33/131 36/36/131 25/25/131
f 35/35/132 29/29/132 25/25/132
f 35/35/133 37/37/133 28/28/133
f 22/22/134 21/38/134 28/28/134
f 21/38/29 20/123/135 31/31/30
f 31/31/136 20/123/136 19/39/136
f 38/40/137 19/39/137 18/41/137
f 32/32/138 38/40/138 39/42/138
f 30/30/139 32/32/139 40/43/139
f 30/30/140 41/44/140 42/45/140
f 27/27/141 30/30/141 43/46/141
f 34/34/142 25/25/142 27/27/142
f 45/48/143 48/51/143 46/49/143
f 48/51/144 54/62/144 49/52/144
f 47/50/145 46/49/145 50/53/145
f 46/49/146 49/52/146 52/55/146
f 42/56/147 41/59/147 45/48/147
f 40/58/148 48/51/148 45/48/148
f 39/60/149 54/62/149 48/51/149
f 18/61/48 16/63/150 54/62/49
f 16/63/151 55/64/151 49/52/151
f 55/64/152 15/124/152 52/55/152
f 52/55/153 15/124/153 13/65/153
f 50/53/44 52/55/43 56/66/154
f 50/53/155 57/67/155 58/68/155
f 51/54/156 58/68/156 59/69/156
f 61/71/157 47/50/157 51/54/157
f 53/57/158 45/48/158 47/50/158
f 62/72/159 66/76/159 63/73/159
f 65/75/160 75/87/160 66/76/160
f 66/76/161 69/79/161 67/77/161
f 66/76/162 75/87/162 68/78/162
f 59/80/163 70/82/163 64/74/163
f 70/82/164 72/84/164 62/72/164
f 71/83/165 65/75/165 62/72/165
f 73/85/166 74/86/166 65/75/166
f 74/86/167 76/88/167 75/87/167
f 76/88/168 89/107/168 68/78/168
f 68/78/169 89/107/169 33/33/169
f 68/78/170 34/89/170 44/90/170
f 69/79/171 44/90/171 43/91/171
f 67/77/172 43/91/172 42/92/172
f 63/73/173 67/77/173 53/93/173
f 60/81/174 64/74/174 63/73/174
f 77/95/175 81/99/175 78/96/175
f 80/98/176 88/106/176 78/96/176
f 79/97/177 78/96/177 82/100/177
f 78/96/178 88/106/178 84/102/178
f 73/85/179 85/103/179 77/95/179
f 85/103/180 87/105/181 81/99/182
f 86/104/183 80/98/183 81/99/183
f 9/9/184 10/10/184 80/98/184
f 10/10/185 24/24/185 88/106/185
f 88/106/186 24/24/186 23/23/186
f 84/102/187 23/23/187 22/22/187
f 82/100/188 84/102/188 37/37/188
f 82/100/189 35/35/189 36/36/189
f 83/101/190 36/36/190 33/33/190
f 79/97/191 83/101/191 89/107/191
f 74/86/192 77/95/192 79/97/192
f 90/108/193 93/111/193 91/109/193
f 93/111/194 98/117/194 94/112/194
f 92/110/195 91/109/195 95/113/195
f 91/109/196 94/112/196 97/115/196
f 59/69/197 58/68/197 90/108/197
f 58/68/198 57/67/198 93/111/198
f 57/67/199 56/66/199 98/117/199
f 13/65/8 14/118/10 98/117/200
f 14/118/201 12/125/201 94/112/201
f 94/112/202 12/125/202 11/119/202
f 97/115/203 11/119/114 9/9/113
f 95/113/204 97/115/204 86/104/204
f 95/113/205 87/105/181 85/103/180
f 96/114/206 85/103/206 73/85/206
f 92/110/207 96/114/207 71/120/207
f 90/108/208 92/110/208 72/121/208
